<?xml version="1.0" encoding="utf-8"?>
<!-- Generator: Adobe Illustrator 19.0.0, SVG Export Plug-In . SVG Version: 6.00 Build 0)  -->
<svg version="1.1" id="Layer_1" xmlns="http://www.w3.org/2000/svg" xmlns:xlink="http://www.w3.org/1999/xlink" x="0px" y="0px"
	 viewBox="0 0 864 864" style="enable-background:new 0 0 864 864;" xml:space="preserve">
<style type="text/css">
	.st0{fill:#0D0D0D;}
	.st1{fill:#4E4E4E;}
	.st2{fill:#F1703A;}
</style>
<g id="XMLID_5_">
	<path id="XMLID_101_" class="st0" d="M448.4,99.2c-1.6,14.2-3.3,28.4-4.9,42.8c-3.7,0.4-7.4,0.7-11,1c-17.4,1.8-34,6.5-50.3,12.6
		c-27.7,10.3-53.4,24.2-78.3,39.9c-1.3,0.8-2.6,1.6-4.4,2.7c5.4-11.8,10.9-22.9,18-33.2c21.2-30.7,50.8-49.3,86.5-58.8
		c12.7-3.4,25.6-5.5,38.7-6.5c0.4,0,0.8-0.4,1.2-0.5C445.3,99.2,446.8,99.2,448.4,99.2z"/>
	<g id="XMLID_3_">
		<path id="XMLID_10_" class="st0" d="M675.5,412.3c-4.8-21-15.4-39.2-28.1-56.3c-5.1-6.9-10.7-13.5-16.5-20.8
			c5.6,0.4,10.7,0.8,15.7,1.2c-15.9-10.9-34.4-6.1-44.3,7.6c5.8-2.2,11.8-4.4,17.9-6.8c1.7-0.7,2.6-0.1,3.6,1.1
			c5.4,6.5,11,12.9,16.2,19.6c11.9,15.6,22.1,32.2,27.5,51.3c6.5,22.9,3,43.9-11.8,62.9c-13.4,17.1-30.7,28.7-50.4,37
			c-28.4,12-58.4,16.8-89.1,18.1c-19.8,0.9-39.5,0.2-59.1-3.1c-25.5-4.3-50.3-11-74.3-20.9c-30.9-12.8-59.2-29.8-83.9-52.3
			c-27.7-25.2-48.7-55.1-63-89.7c-2.5-6-4.7-12.2-7-18.4c12.4-6.1,25.4-5.5,38.6-5.8c-0.6-0.5-0.8-0.7-1-0.8
			c-18.6-6.8-35.7-4.7-50.8,8.8c-10.5,9.4-17.5,21.2-22.9,34.1c-2.4,5.7-4.4,11.5-6.6,17.2c10.2-17.8,19.7-35.9,36.3-49.4
			c0.4,2,0.7,3.5,1,5c10.1,44.6,22,88.6,36.2,132c13.7,42,29.3,83.3,47.3,123.6c14.5,32.6,30.2,64.6,49.1,95.1
			c6.2,10,12.2,20.2,20.7,28.5c21.3,20.8,47.7,29.8,76.5,33c2.7,0.3,5.4,0.8,8.1,1.2h5.3c1.8-0.2,3.5-0.5,5.3-0.5
			c3.3,0.1,6.6,0.3,9.9,0.5h2.9c0.3-0.2,0.6-0.5,0.9-0.5c16.8-0.6,33.1-4.2,48.8-10.1c12.5-4.7,24.9-9.8,35.2-18.7
			c10.3-9,15.9-19.7,15.1-34c-0.6-10.5,0.2-21.2,1.5-31.7c2.5-20.6,7.8-40.7,15.3-60.1c14.9-38.9,30.2-77.6,45.5-116.3
			c0.9-2.1,2.4-4.1,4.1-5.8c10.3-10.4,19-21.8,23.4-36c1.4-4.5,2.2-9.1,3.3-13.7V422C677,418.8,676.3,415.5,675.5,412.3z M494,534.4
			c29,0.5,57.6-2.1,86.2-9.4c-0.9,5.1-1.7,10.1-2.8,15c-2.2,10.1-4.6,20.2-6.7,30.3c-1.8,8.7-6.8,14.4-14.8,17.7
			c-13,5.4-26.6,9-40.4,11.7c-14.4,2.8-28.9,4.4-43.5,4c-10.3-0.2-20.6-0.7-30.5-3.9c-9.3-3-15.6-8.6-18.7-18.2
			c-6.3-20-11.6-40.2-14-61.6C436.8,528.2,464.9,533.9,494,534.4z"/>
		<path id="XMLID_18_" class="st0" d="M335.2,316.6c14.5,13.6,31.8,19.8,51.7,18.4c6.3-0.4,12.5-2,18.8-3.1
			c-0.1,0.2-0.2,0.8-0.3,1.3c-4.2,13.9-6.9,28.1-6.6,42.7c0.3,12.6,4,19.2,16.7,23.5c22.8,7.8,46.3,11,70.1,11.9
			c28.5,1.1,56.8-0.4,85-5.1c6.8-1.1,13.6-2.1,19.8-5.5c6-3.3,7.8-7.7,5.6-14.1c-0.3-1-0.7-2-1.1-3c-10.6-25.8-25.6-48.8-44.6-69.2
			c-5.9-6.4-12.4-12.3-18.7-18.6c0.7-0.2,1.5-0.5,2.3-0.8c21.7-7.4,36-26.8,35.5-49.8c-0.2-8.6-2.1-17.1-3.3-25.6
			c-4.8-33.2-39.1-52-69.8-38.6c-11.7,5.1-19.7,14.4-28.1,23.2c-8.1,8.6-11.8,19.3-12.8,31.1c-2.5-6-5.1-11.9-7.4-17.8
			c-1.8-4.5-2.8-9.3-4.9-13.6c-6-13.1-15.1-23.2-29.2-27.5c-21.1-6.4-40-1-57.1,12.2c-2.8,2.2-5,5.3-7.9,7.3
			c-8.2,5.6-15.4,12.2-21.2,20.3C305.6,246.9,307.4,290.5,335.2,316.6z M504.3,191.4c27.6-2.5,52.2,17.1,58.5,41.3
			c7.3,28.4-11.4,56.3-40.5,59.5c-28.7,3.2-54.3-15.1-60.6-43.4c-0.7-3.4-0.9-6.9-1.3-10.4C460.7,213.4,479.3,193.7,504.3,191.4z
			 M458.3,258.2c3,5.4,6.6,11.7,10.1,17.9c-4.3,0.9-8.8,1.8-13.1,2.7C456.4,271.6,457.4,264.5,458.3,258.2z M369,192.3
			c34.3-10.5,69.6,8.2,80.5,42.7c1,3.1,1.8,6.3,2.3,9.6c0.6,4,0.8,8.1,1.2,12.2c-0.2,29.5-18.4,57.2-44.9,68.1
			c-37.7,15.6-78-4.6-88.1-44.6C310.5,242.6,332.6,203.5,369,192.3z"/>
	</g>
	<path id="XMLID_91_" class="st0" d="M586.5,190.5c-7.7-6.1-14.8-12.1-22.2-17.7c-14.1-10.8-28.6-20.8-45.4-26.9
		c-5.7-2-11.7-3.2-17.8-4.8c3-11.5,6.2-23.4,9.4-35.5c24,7.4,45,18.8,60,39.3C580.2,158.3,585.7,173.3,586.5,190.5z"/>
	<g id="XMLID_2_">
		<path id="XMLID_90_" class="st1" d="M239.5,386.2c3.4,5.8,6.5,11.9,10.4,17.4c6.3,9.1,12.7,18.1,19.6,26.7
			c5.7,7.1,11.9,13.8,18.5,20.2c16.5,16,34.8,29.6,54.7,41c14.9,8.5,30.3,15.8,46.4,21.8c3.5,1.3,7.2,2.5,10.6,3.9
			c0.8,0.3,1.8,1.5,1.9,2.3c1.9,15.1,4.7,30.1,8.8,44.7c2.4,8.4,4.9,16.8,8,24.9c3.3,8.6,10.5,13.6,18.8,16.3
			c6.6,2.1,13.6,3.2,20.4,4.1c6.3,0.8,12.8,1.3,19.2,1.1c13.3-0.4,26.5-1.7,39.6-4.3c13.6-2.7,27-6.3,40-11.3
			c9.2-3.5,16.7-9.1,19.7-18.9c2.3-7.6,4-15.4,5.6-23.2c2-9.3,3.6-18.6,5.5-27.9c0.2-1,1.2-2.4,2.1-2.7c16-5.2,31.2-11.8,45.3-21.2
			c0.3-0.2,0.7-0.2,1.7-0.6c-0.9,2.4-1.6,4.3-2.3,6.3c-8.4,21.2-17,42.4-25.2,63.7c-6,15.4-12,30.8-17.1,46.5
			c-4.3,13.4-7.8,27.2-10.7,41.1c-1.9,9.1-2.5,18.6-3.2,28c-0.5,6.3-0.3,12.6,0,18.9c0.4,9.8-4.2,17.2-10.7,23.6
			c-6.1,6-13.4,10.3-21.3,13.5c-9.7,3.9-19.6,7.6-29.6,10.6c-6.8,2.1-14,3.3-21.1,4.1c-7.7,0.9-15.5,1.3-23.3,1.2
			c-17.5-0.3-34.9-2.4-51.5-8.3c-13.1-4.7-25-11.4-35.4-20.8c-9.4-8.4-15.9-18.8-22.3-29.3c-6.2-10-12-20.2-17.6-30.6
			c-6.5-12.1-12.8-24.2-18.6-36.6c-8.4-18.1-16.5-36.3-24.1-54.6c-7.2-17.2-14.1-34.5-20.4-52.1c-8.5-24-16.5-48.1-24-72.4
			c-6.6-21.4-12.3-43.1-18.3-64.7c-0.2-0.8-0.3-1.7-0.4-2.5C239.1,386.2,239.3,386.2,239.5,386.2z"/>
		<g id="XMLID_1_">
			<path id="XMLID_85_" class="st2" d="M561.6,334.9c-8.3,1.3-15.6,2-22.7,3.5c-9.3,2-17.8,5.8-24.3,13.1c-5.4,6-7.9,13.3-8.4,21.3
				c-0.6,10.5,1.7,20.5,5.1,30.3c0.3,0.9,0.6,1.8,1,3.2c-3.6,0-6.8,0.1-9.9,0c-11.4-0.4-22.8-0.8-34.1-1.5c-1.5-0.1-3.3-1.2-4.2-2.4
				c-8.2-11-13.4-23.2-13.8-37.1c-0.4-16,5.8-29.2,18-39.5c10.9-9.2,23.9-13.9,37.9-16.1c10.1-1.7,20.3-1.8,30.5-0.1
				c0.7,0.1,1.7,0.2,2.1,0.7C546.3,318.4,553.7,326.4,561.6,334.9z"/>
			<path id="XMLID_81_" class="st2" d="M531.9,303.9c-12.1-1.3-23.2-0.3-34.1,2.3c-15.4,3.7-29.2,10.3-39.6,22.5
				c-12.3,14.5-15.5,31.2-11.3,49.5c1,4.5,2.7,8.9,4.6,13.2c1.8,4.1,4.3,8,6.8,12.5c-4.9-0.8-9.6-1.3-14.1-2.4
				c-9.1-2.2-18.1-4.4-27-7.1c-9.9-3-12.9-7-13.1-17.4c-0.4-15.9,2.4-31.3,7.9-46.2c0.5-1.5,1.9-3,3.3-3.7
				c16.4-8.7,28.3-21.6,35.8-38.6c0.9-2.1,2.1-3.4,4.3-3.9c5.8-1.2,11.6-2.4,17.4-3.3c1-0.2,2.4,0.7,3.3,1.5
				c11.8,10.1,25.4,15.2,40.9,15.1c0.5,0,1,0.1,1.5,0C524.4,295.8,527.6,300.1,531.9,303.9z"/>
			<path id="XMLID_80_" class="st2" d="M511.4,376.5c-0.5-17.8,9.5-27.8,25.3-32.1c8.3-2.2,17-2.5,25.6-3.8c2-0.3,3.2,0.6,4.3,2.2
				c9.6,13.9,17.7,28.6,23.9,44.3c2,5.1,1.3,7.5-3.8,9.4c-5.3,1.9-10.9,3.6-16.6,4.3c-15.2,1.9-30.5,3.4-45.7,4.8
				c-6.6,0.6-6.6,0.4-8.7-6C513.2,392.1,511.2,384.5,511.4,376.5z"/>
		</g>
	</g>
	<path id="XMLID_78_" class="st0" d="M357.1,260.9c0.1-17.3,14.2-31.3,31.4-31.2c17,0.1,31.1,14.2,31.2,31.3
		c0.1,17.2-14.1,31.4-31.6,31.3C370.7,292.2,357,278.3,357.1,260.9z"/>
	<path id="XMLID_77_" class="st0" d="M534.2,258c0.1,12.5-9.9,23.3-23.9,24.4c-16.2,1.3-31.8-8.8-36.3-23.8
		c-4.7-15.8,5.7-30.5,22.1-32c17.4-1.6,33,10.4,36.6,23.7C533.4,252.8,533.7,255.4,534.2,258z"/>
</g>
</svg>
